<svg width="40" height="40" viewBox="0 0 40 40" fill="none" xmlns="http://www.w3.org/2000/svg">
<circle cx="20" cy="20" r="19.5" fill="black" stroke="white"/>
<path d="M14.226 28.168C13.858 28.168 13.57 28.064 13.362 27.856C13.154 27.648 13.05 27.352 13.05 26.968V12.16C13.05 11.76 13.146 11.456 13.338 11.248C13.546 11.024 13.818 10.912 14.154 10.912C14.442 10.912 14.658 10.968 14.802 11.08C14.962 11.176 15.146 11.36 15.354 11.632L25.242 24.664H24.642V12.088C24.642 11.72 24.738 11.432 24.93 11.224C25.138 11.016 25.426 10.912 25.794 10.912C26.178 10.912 26.466 11.016 26.658 11.224C26.85 11.432 26.946 11.72 26.946 12.088V26.992C26.946 27.36 26.85 27.648 26.658 27.856C26.482 28.064 26.242 28.168 25.938 28.168C25.65 28.168 25.41 28.112 25.218 28C25.042 27.888 24.85 27.696 24.642 27.424L14.802 14.416H15.354V26.968C15.354 27.352 15.258 27.648 15.066 27.856C14.874 28.064 14.594 28.168 14.226 28.168Z" fill="white"/>
</svg>
