<svg width="20" height="20" viewBox="0 0 20 20" fill="none" xmlns="http://www.w3.org/2000/svg">
<path d="M14.7237 7.15916H14.4826V5.62499C14.4826 4.4414 14.0306 3.324 13.2099 2.47946C12.367 1.61212 11.2238 1.13486 9.99251 1.13486C7.47555 1.13486 5.50243 3.10799 5.50243 5.62497V7.15914H5.27663C3.99507 7.15914 2.95615 8.19806 2.95615 9.47961V16.464C2.95615 17.7456 3.99507 18.7845 5.27663 18.7845H14.7237C16.0053 18.7845 17.0442 17.7456 17.0442 16.464V9.47963C17.0441 8.19808 16.0052 7.15916 14.7237 7.15916ZM6.50984 5.62501C6.50984 3.67128 8.03876 2.14234 9.99249 2.14234C10.951 2.14234 11.8365 2.51176 12.4874 3.1816L12.5591 3.11191L12.4874 3.1816C13.1243 3.837 13.4752 4.70444 13.4752 5.62501V7.15918H6.50984V5.62501ZM16.0367 16.464C16.0367 17.1892 15.4488 17.777 14.7237 17.777H5.27661C4.55144 17.777 3.96358 17.1892 3.96358 16.464V9.47963C3.96358 8.75447 4.55144 8.16661 5.27661 8.16661H14.7237C15.4488 8.16661 16.0367 8.75447 16.0367 9.47963V16.464Z" fill="#EAECF5" stroke="#EAECF5" stroke-width="0.2"/>
<path d="M10.4631 11.7406V11.7406C10.4631 11.4624 10.2376 11.2369 9.95939 11.2369C9.68119 11.2369 9.45566 11.4624 9.45566 11.7406V13.8804C9.45566 14.1585 9.68119 14.3841 9.95939 14.3841C10.2376 14.3841 10.4631 14.1586 10.4631 13.8804V11.7406Z" fill="#EAECF5" stroke="#EAECF5" stroke-width="0.2"/>
</svg>
