<svg width="16" height="16" viewBox="0 0 16 16" fill="none" xmlns="http://www.w3.org/2000/svg">
<path fill-rule="evenodd" clip-rule="evenodd" d="M8 16C12.4183 16 16 12.4183 16 8C16 3.58172 12.4183 0 8 0C3.58172 0 0 3.58172 0 8C0 12.4183 3.58172 16 8 16ZM10.7578 5.10055C10.953 5.29581 10.953 5.61239 10.7578 5.80765L8.56543 8L10.7574 10.192C10.9527 10.3872 10.9527 10.7038 10.7574 10.8991C10.5621 11.0943 10.2456 11.0943 10.0503 10.8991L7.85832 8.70711L5.80803 10.7574C5.61276 10.9527 5.29618 10.9527 5.10092 10.7574C4.90566 10.5621 4.90566 10.2456 5.10092 10.0503L7.15122 8L5.10055 5.94933C4.90529 5.75407 4.90529 5.43749 5.10055 5.24223C5.29581 5.04696 5.61239 5.04696 5.80766 5.24223L7.85832 7.29289L10.0507 5.10055C10.2459 4.90529 10.5625 4.90529 10.7578 5.10055Z" fill="#F1645F"/>
</svg>
