<svg width="18" height="18" viewBox="0 0 18 18" fill="none" xmlns="http://www.w3.org/2000/svg">
<g id="Frame">
<path id="Vector" d="M16.4654 1.92693C16.4654 1.92693 18.1306 1.30362 17.9918 2.81738C17.9455 3.4407 17.5293 5.6223 17.2055 7.98201L16.0954 14.9721C16.0954 14.9721 16.0029 15.9961 15.1703 16.1742C14.3377 16.3522 13.0889 15.5508 12.8576 15.3727C12.6726 15.2392 9.38863 13.2357 8.23226 12.2562C7.90848 11.989 7.53845 11.4548 8.27851 10.8314L13.1352 6.37921C13.6902 5.84493 14.2453 4.5983 11.9326 6.11207L5.45705 10.3417C5.45705 10.3417 4.71699 10.7869 3.3294 10.3862L0.322895 9.49578C0.322895 9.49578 -0.787196 8.82795 1.10921 8.16007C5.73459 6.06751 11.4238 3.93043 16.4654 1.92693Z" fill="#EAECF5"/>
</g>
</svg>
